# xmcd
#
# Track frame offsets: 
#        182
#        14560
#        27597
#        41130
#        50567
#        61807
#        74635
#        85625
#        95325
#        107285
#        118512
#        131320
#        142942
#        153475
#        167097
#        178515
#        192737
#        203940
#        214005
#        224807
#
# Disc length: 3163 seconds
#
# Revision: 1
# Processed by: cddbd v1.5.2PL0 Copyright (c) Steve Scherf et al.
# Submitted via: ExactAudioCopy v0.99pb3
#
DISCID=280c5914
DTITLE=Various Artist - Louisiana Swamp Pop
DYEAR=1990
DGENRE=R&B-New Orleans/Swamp
TTITLE0=Doug Charles - You're On My Mind
TTITLE1=Warren Storm - Prisoner's Song
TTITLE2=Guitar Gable and King Karl - Irene
TTITLE3=Bobby Charles - Teenagers
TTITLE4=Katie Webster - Sea Of Love
TTITLE5=Merton Thibodeaux - The Snake
TTITLE6=Tommy Strange - Lonely Lonely Heart
TTITLE7=Tony Perreau - Kissin' Kin
TTITLE8=Rocket Moran - This Life I Live
TTITLE9=Doug Charles - Talk To Your Daughter
TTITLE10=Everett Daigle - Eternally
TTITLE11=Everett Daigle - Lonely Street
TTITLE12=Warren Storm - Mama Mama Mama
TTITLE13=Dale Houston - Won't You Believe Me
TTITLE14=Guitar Jeff - Puppy Love
TTITLE15=Unknown Artist - My Man Treats Me So Nice
TTITLE16=Mr Calhoun - On The Sunny Side Of Love
TTITLE17=Joe Rich - Hold My Hand
TTITLE18=Lazy Lester - I Hear You Knockin'
TTITLE19=Guitar Gable and King Karl - This Should Go On Forever
EXTD=YEAR: 1990
EXTT0=
EXTT1=
EXTT2=
EXTT3=
EXTT4=
EXTT5=
EXTT6=
EXTT7=
EXTT8=
EXTT9=
EXTT10=
EXTT11=
EXTT12=
EXTT13=
EXTT14=
EXTT15=
EXTT16=
EXTT17=
EXTT18=
EXTT19=
PLAYORDER=
